<?xml version="1.0" standalone="no"?>
<!DOCTYPE svg PUBLIC "-//W3C//DTD SVG 20010904//EN"
 "http://www.w3.org/TR/2001/REC-SVG-20010904/DTD/svg10.dtd">
<svg version="1.0" xmlns="http://www.w3.org/2000/svg"
 width="600.000000pt" height="600.000000pt" viewBox="0 0 600.000000 600.000000"
 preserveAspectRatio="xMidYMid meet">
<metadata>
Created by potrace 1.11, written by Peter Selinger 2001-2013
</metadata>
<g transform="translate(0.000000,600.000000) scale(0.100000,-0.100000)"
fill="#000000" stroke="none">
<path d="M2905 5055 c-78 -14 -159 -51 -220 -100 -22 -18 -402 -395 -845 -839
-570 -571 -814 -822 -837 -861 -97 -165 -88 -396 22 -545 25 -34 1541 -1557
1641 -1650 166 -151 429 -168 619 -39 38 25 1642 1626 1683 1679 123 160 128
420 10 585 -48 67 -1649 1665 -1703 1699 -113 72 -233 95 -370 71z m200 -106
c27 -5 70 -21 95 -36 57 -32 1647 -1617 1696 -1691 87 -130 89 -305 6 -440
-15 -23 -396 -410 -847 -860 -864 -863 -855 -854 -965 -877 -93 -20 -210 -3
-290 43 -50 28 -1627 1594 -1686 1674 -51 69 -76 148 -76 238 1 92 18 151 65
221 52 77 1651 1672 1702 1696 97 48 180 56 300 32z"/>
<path d="M2962 4094 c-22 -15 -23 -21 -20 -104 3 -52 0 -97 -6 -109 -34 -63
-588 -627 -896 -911 -167 -155 -230 -219 -240 -245 -10 -28 5 -56 46 -84 45
-31 87 -35 132 -12 20 11 138 121 262 245 252 254 289 284 323 269 33 -15 178
-132 281 -226 50 -45 118 -107 151 -137 33 -30 99 -93 147 -140 l88 -85 -92
-100 c-50 -55 -119 -129 -152 -165 -259 -279 -326 -357 -326 -382 0 -9 11 -30
25 -46 22 -27 30 -30 67 -26 82 10 120 39 373 287 136 133 256 246 267 251 16
8 26 3 54 -27 20 -20 41 -37 47 -37 19 1 100 39 119 57 31 28 22 58 -34 108
l-53 46 90 85 c122 116 270 240 330 279 28 17 82 44 121 59 74 28 88 43 73 83
-16 43 -180 145 -254 158 -35 6 -42 2 -120 -90 -103 -120 -209 -230 -334 -348
l-73 -67 -314 315 c-173 173 -314 319 -314 325 0 5 21 29 48 52 26 24 109 104
185 178 144 141 192 179 267 213 25 11 50 27 57 36 16 22 8 69 -22 142 -38 90
-65 127 -109 147 -53 25 -162 29 -194 6z"/>
</g>
</svg>
